<svg width="28" height="28" viewBox="0 0 28 28" fill="none" xmlns="http://www.w3.org/2000/svg">
<path d="M25.1767 5.3508L27.2998 3.25893V2.80078H19.9467L14.7064 16.2399L8.74564 2.80078H1.03579V3.25893L3.51569 6.33458C3.75814 6.56188 3.88282 6.89572 3.85165 7.22957V19.3155C3.92785 19.7524 3.79277 20.1963 3.49491 20.5124L0.699829 24.0036V24.4546H8.61749V23.9965L5.82587 20.5159C5.6763 20.3602 5.56379 20.1712 5.49711 19.9636C5.43043 19.756 5.41137 19.5354 5.44142 19.3191V8.86329L12.3927 24.4617H13.1998L19.1778 8.86329V21.2902C19.1778 21.6169 19.1778 21.6844 18.97 21.901L16.8192 24.0426V24.5008H27.2513V24.0426L25.1767 21.9508C24.9966 21.8087 24.9031 21.5707 24.9412 21.3399V5.96166C24.9232 5.84754 24.9356 5.73056 24.9771 5.62306C25.0185 5.51555 25.0875 5.4215 25.1767 5.3508Z" fill="white"/>
</svg>
