<svg width="28" height="28" viewBox="0 0 28 28" fill="none" xmlns="http://www.w3.org/2000/svg">
<path fill-rule="evenodd" clip-rule="evenodd" d="M13.9926 1.40039C10.4673 1.40083 7.08645 2.80146 4.59367 5.29423C2.10089 7.78701 0.700271 11.1678 0.699829 14.6931C0.699829 20.5629 4.53299 25.5377 9.75109 27.3326C10.4044 27.4142 10.6477 27.0059 10.6477 26.6793V24.396C6.97955 25.2127 6.16459 22.6028 6.16459 22.6028C5.59294 21.0529 4.69632 20.6445 4.69632 20.6445C3.47304 19.8296 4.77631 19.8296 4.77631 19.8296C6.08126 19.9112 6.81622 21.2162 6.81622 21.2162C8.0395 23.2544 9.91442 22.6828 10.6494 22.3578C10.7294 21.4612 11.1377 20.8912 11.4643 20.5645C8.52781 20.2379 5.42962 19.0963 5.42962 13.9582C5.42962 12.4916 5.91793 11.3483 6.81622 10.37C6.73289 10.125 6.24458 8.74006 6.97955 6.94514C6.97955 6.94514 8.12116 6.61849 10.6477 8.33175C11.7077 8.0051 12.851 7.92343 13.9926 7.92343C15.1342 7.92343 16.2758 8.08676 17.3358 8.33175C19.864 6.62016 21.0056 6.94514 21.0056 6.94514C21.7389 8.74006 21.2489 10.125 21.1672 10.4517C22.0654 11.4301 22.5606 12.7117 22.5539 14.0398C22.5539 19.1779 19.454 20.2379 16.5208 20.5645C17.0091 20.9712 17.4174 21.7861 17.4174 23.0094V26.6793C17.4174 27.0059 17.6607 27.4126 18.314 27.3326C20.9573 26.4405 23.2533 24.7403 24.8775 22.4722C26.5017 20.2041 27.372 17.4828 27.3653 14.6931C27.2836 7.35346 21.3322 1.40039 13.9926 1.40039Z" fill="#fff"/>
</svg>
