<svg width="28" height="28" viewBox="0 0 28 28" fill="none" xmlns="http://www.w3.org/2000/svg">
<path d="M27.9493 6.19512C26.9214 6.65056 25.8173 6.95829 24.6566 7.09739C25.8542 6.38074 26.7503 5.25281 27.1775 3.92407C26.0522 4.59245 24.8207 5.06292 23.5364 5.31501C22.6728 4.39289 21.5289 3.78169 20.2823 3.57631C19.0357 3.37093 17.7561 3.58285 16.6423 4.17919C15.5285 4.77552 14.6427 5.72289 14.1225 6.87423C13.6023 8.02556 13.4768 9.31643 13.7654 10.5464C11.4853 10.4319 9.25483 9.83932 7.21864 8.80702C5.18244 7.77471 3.38607 6.3258 1.94608 4.55431C1.45372 5.40364 1.1706 6.38838 1.1706 7.43712C1.17006 8.38123 1.40255 9.31088 1.84746 10.1436C2.29237 10.9763 2.93594 11.6863 3.72107 12.2106C2.81053 12.1817 1.92008 11.9356 1.12383 11.493V11.5669C1.12374 12.891 1.58177 14.1744 2.42021 15.1993C3.25866 16.2242 4.42586 16.9274 5.72378 17.1897C4.8791 17.4183 3.99352 17.452 3.13392 17.2882C3.50012 18.4275 4.21343 19.4239 5.17401 20.1377C6.13458 20.8515 7.29433 21.247 8.49089 21.269C6.45966 22.8635 3.95111 23.7285 1.36878 23.7247C0.91135 23.7248 0.454303 23.6981 0 23.6446C2.62121 25.33 5.6725 26.2244 8.78877 26.221C19.3378 26.221 25.1046 17.4839 25.1046 9.90635C25.1046 9.66016 25.0985 9.41152 25.0874 9.16533C26.2091 8.35412 27.1774 7.3496 27.9468 6.19881L27.9493 6.19512Z" fill="#977847"/>
</svg>
