<svg width="28" height="28" viewBox="0 0 28 28" fill="none" xmlns="http://www.w3.org/2000/svg">
<path d="M8.85876 14.7343C8.85876 13.8332 9.50337 13.2324 10.1649 13.2324C10.8382 13.2324 11.4861 13.845 11.471 14.7208V14.7343C11.471 15.6371 10.8247 16.2361 10.1649 16.2361C9.52025 16.2361 8.85876 15.6303 8.85876 14.7343Z" fill="#fff"/>
<path d="M16.7681 14.7338C16.7681 14.2579 16.9132 13.9238 17.0954 13.723C17.1998 13.6121 17.3271 13.5252 17.4684 13.4683C17.6097 13.4115 17.7617 13.3861 17.9139 13.394C18.5737 13.394 19.22 13.993 19.22 14.8958C19.22 15.7969 18.5737 16.3976 17.9139 16.3976C17.6439 16.3976 17.3806 16.266 17.1545 15.9673C16.8983 15.6081 16.763 15.1767 16.7681 14.7355V14.7338Z" fill="white"/>
<path fill-rule="evenodd" clip-rule="evenodd" d="M7.81249 22.1837C8.27992 22.366 8.79628 22.5499 9.36158 22.7186C8.36598 23.7514 6.82364 25.1992 6.82364 25.1992C2.03463 25.0473 1.40015 21.124 1.40015 21.124C1.40015 14.148 4.52195 5.77824 4.52195 5.77824C7.64037 3.43774 10.6086 3.50017 10.6086 3.50017L10.8837 5.34963C9.44595 5.73268 7.97111 6.36379 6.38996 7.22777L7.25563 8.81398C9.86444 7.39145 11.989 6.72828 14.0595 6.72659C16.1283 6.72659 18.2494 7.38639 20.8515 8.81398L21.7205 7.22777C20.0618 6.31823 18.5211 5.66687 17.0159 5.29225L17.5002 3.50017C17.5002 3.50017 20.4701 3.43605 23.5902 5.77656C23.5902 5.77656 26.7103 14.1447 26.7103 21.1223C26.7103 21.1223 26.0759 25.0457 21.2869 25.1975C21.2869 25.1975 19.8458 23.7767 18.894 22.7524C19.3935 22.6005 19.8998 22.4149 20.4128 22.2023C21.3466 21.8484 22.2375 21.3905 23.0688 20.8371L22.0732 19.3269C21.243 19.8753 20.4583 20.255 19.7648 20.5131L19.753 20.5182L19.7445 20.5216L19.7276 20.5283C18.7835 20.9318 17.796 21.2251 16.7847 21.4024L16.7695 21.4041C15.0246 21.7252 13.2352 21.7184 11.4928 21.3839C10.4594 21.1812 9.44671 20.8847 8.46723 20.4979C7.61675 20.1655 6.88945 19.8128 6.18578 19.3201L5.14968 20.8017C6.01028 21.4041 6.87764 21.8175 7.80912 22.182L7.81249 22.1837ZM10.1648 11.4245C8.35417 11.4245 7.04976 12.9938 7.04976 14.7336C7.04976 16.4818 8.38285 18.0444 10.1648 18.0444C11.9721 18.0444 13.2748 16.4801 13.2782 14.742C13.3035 12.9769 11.9586 11.4245 10.1648 11.4245ZM17.9136 11.5865C17.0581 11.5865 16.2953 11.9122 15.7537 12.5095C15.2221 13.1001 14.9606 13.8899 14.9606 14.7336C14.9606 15.5773 15.2238 16.4126 15.7132 17.0589C16.2076 17.7136 16.9686 18.2064 17.9136 18.2064C19.7243 18.2064 21.027 16.637 21.027 14.8956C21.027 13.1541 19.7243 11.5865 17.9136 11.5865Z" fill="white"/>
</svg>
